<svg width="39" height="37" viewBox="0 0 39 37" fill="none" xmlns="http://www.w3.org/2000/svg">
<path d="M19.5022 1.58998e-06C8.72718 -0.00424445 0 8.49633 0 18.9883C0 27.2851 5.45939 34.3377 13.0625 36.9278C14.0864 37.1783 13.9295 36.4692 13.9295 35.9852V32.6945C8.01698 33.3696 7.77734 29.5567 7.38085 28.9198C6.57915 27.5865 4.68383 27.2468 5.25025 26.6099C6.59658 25.9348 7.96905 26.7798 9.55938 29.0684C10.7096 30.7286 12.9535 30.4484 14.0907 30.1724C14.3391 29.1745 14.8706 28.2829 15.6026 27.5908C9.4766 26.5208 6.92336 22.8777 6.92336 18.5467C6.92336 16.4449 7.63356 14.513 9.02782 12.9547C8.13898 10.3858 9.1106 8.18637 9.24131 7.85942C11.7728 7.63863 14.4044 9.62578 14.6092 9.78288C16.047 9.40498 17.6896 9.20542 19.5283 9.20542C21.3757 9.20542 23.0227 9.41347 24.4736 9.79562C24.9659 9.43046 27.4059 7.72355 29.7587 7.93161C29.885 8.25855 30.8349 10.407 29.9983 12.9419C31.41 14.5045 32.1289 16.4534 32.1289 18.5594C32.1289 22.8989 29.5583 26.5462 23.4148 27.5993C23.941 28.1036 24.3588 28.705 24.6439 29.3684C24.9289 30.0318 25.0754 30.7439 25.0749 31.4632V36.24C25.1097 36.6221 25.0749 37 25.7284 37C33.4448 34.4651 39 27.3615 39 18.9925C39 8.49633 30.2685 1.58998e-06 19.5022 1.58998e-06V1.58998e-06Z" fill="#CDD7F5"/>
</svg>
