<svg width="88" height="88" viewBox="0 0 88 88" fill="none" xmlns="http://www.w3.org/2000/svg">
<path d="M44 0.00012207C32.7351 0.00012207 21.458 4.29202 12.8748 12.8751C-4.2916 30.0414 -4.2916 57.9589 12.8748 75.1252C30.0412 92.2915 57.9589 92.2914 75.1252 75.1252C92.2916 57.9588 92.2915 30.0414 75.1252 12.8751C66.542 4.29202 55.2649 0.00012207 44 0.00012207V0.00012207ZM44 4.00012C54.2328 4.00012 64.4625 7.90003 72.2814 15.7189C87.9192 31.3566 87.9192 56.6437 72.2814 72.2814C56.6436 87.9192 31.3564 87.9191 15.7186 72.2814C0.0807257 56.6437 0.0808258 31.3566 15.7186 15.7189C23.5375 7.90003 33.7673 4.00012 44 4.00012V4.00012ZM67.1564 20.2189C66.9484 20.2309 66.6758 20.3204 66.3752 20.4689L38.0938 34.5939C36.8801 35.1965 35.1964 36.8804 34.5938 38.0939L20.4687 66.3752C20.4247 66.4502 20.4077 66.521 20.3747 66.594C19.9282 67.6649 20.4828 68.0796 21.6247 67.5002L49.9374 53.3752C51.1396 52.7672 52.7671 51.1087 53.3749 49.9064L67.5 21.6251C67.8042 21.0202 67.8334 20.5915 67.625 20.3751C67.5206 20.2669 67.3643 20.2069 67.1562 20.2189H67.1564ZM44 39.0001C46.7377 39.0001 49.0001 41.2624 49.0001 44.0001C49.0001 46.7378 46.7378 49.0002 44 49.0002C41.2622 49.0002 39 46.7378 39 44.0001C39 41.2624 41.2623 39.0001 44 39.0001Z" fill="#FCDD3B"/>
</svg>
