<svg width="52" height="13" fill="none" xmlns="http://www.w3.org/2000/svg" viewBox="0 0 65 65">
  <path fill-rule="evenodd" clip-rule="evenodd" d="M16.697 0a1.395 1.395 0 00-.996.378 1.457 1.457 0 00-.457.981l-.023.393-1.106 13.634-3.691.244.647-12.56.03-.392c.023-.38-.1-.753-.344-1.04a1.393 1.393 0 00-1.98-.154c-.284.246-.461.596-.494.975l-.029.392-1.27 13.005-5.135.339-.502.023a1.388 1.388 0 00-.978.47 1.45 1.45 0 00-.367 1.04 1.47 1.47 0 00.46 1 1.406 1.406 0 001.016.375l.503-.024 4.697-.137L5.64 29.338l-.022.292a2.14 2.14 0 00.48 1.539c.175.211.39.385.632.511a2.018 2.018 0 002.276-.284c.205-.182.372-.404.493-.652.12-.248.192-.519.21-.795l.021-.292.533-10.82 3.576-.104-.797 9.547-.017.293a2.14 2.14 0 00.514 1.517c.178.206.395.374.638.494a2.016 2.016 0 002.258-.319c.202-.183.366-.404.483-.652.118-.248.187-.517.202-.792l.017-.292.325-9.901 2.732-.08.873-.023-1.255 10.765-.027.291a2.14 2.14 0 00.46 1.54c.172.213.383.39.622.519a2.018 2.018 0 002.274-.243 2.13 2.13 0 00.73-1.427l.025-.292.74-11.25 3.803-.104-1.014 12.161-.017.293a2.137 2.137 0 00.513 1.517c.179.206.396.374.638.494a2.016 2.016 0 002.259-.318 2.133 2.133 0 00.685-1.444l.016-.293.405-12.345.006-.16 4.03-.11.374-.018a2.033 2.033 0 001.417-.684c.365-.41.556-.953.53-1.507a2.115 2.115 0 00-.665-1.45c-.4-.375-.93-.571-1.473-.547l-.373.018-3.699.25.353-10.052.023-.394a1.474 1.474 0 00-.354-1.044 1.416 1.416 0 00-.972-.483 1.384 1.384 0 00-1.022.362 1.442 1.442 0 00-.472.995l-.023.393-.847 10.448-3.868.262.785-11.549.036-.392a1.465 1.465 0 00-.321-1.052 1.392 1.392 0 00-1.985-.189c-.288.244-.47.594-.506.974l-.036.392-1.377 12.047-1.452.098-2.456.162.465-13.235.023-.393a1.472 1.472 0 00-.367-1.06 1.415 1.415 0 00-1-.47zm39.55.002a1.395 1.395 0 00-.995.378 1.457 1.457 0 00-.457.98l-.023.392-1.153 14.22-1.026 12.308-.017.293a2.141 2.141 0 00.513 1.517c.179.206.396.374.638.494a2.016 2.016 0 002.259-.319c.201-.183.365-.404.483-.652.117-.248.186-.517.202-.792l.017-.293.404-12.345.5-14.26.023-.393a1.471 1.471 0 00-.368-1.06 1.415 1.415 0 00-1-.468zM49.305 1.13a1.394 1.394 0 00-.998.36 1.455 1.455 0 00-.472.969l-.03.392L46.42 17.05l-1.228 12.288-.022.292a2.14 2.14 0 00.48 1.538c.175.212.39.385.632.511a2.018 2.018 0 002.275-.284c.205-.182.373-.403.493-.651.12-.249.192-.519.21-.796l.022-.292.607-12.336.735-14.25.029-.392a1.474 1.474 0 00-.353-1.065 1.415 1.415 0 00-.994-.483zm14.492.026a1.397 1.397 0 00-.913.393c-.248.24-.403.563-.436.91l-.036.392-1.62 14.173-1.43 12.265-.026.292a2.142 2.142 0 00.459 1.54 2.02 2.02 0 002.191.668c.258-.082.497-.215.705-.392.208-.177.379-.394.504-.64.125-.244.202-.512.225-.787l.027-.292.81-12.324.968-14.235.036-.392a1.473 1.473 0 00-.384-1.124 1.385 1.385 0 00-1.08-.447zm6.833 1.051a1.395 1.395 0 00-.996.378 1.457 1.457 0 00-.457.98l-.023.392-1.152 14.22-1.027 12.308-.017.293a2.14 2.14 0 00.513 1.517c.18.206.396.374.638.494a2.016 2.016 0 002.259-.319c.201-.183.366-.404.483-.652.118-.248.186-.517.202-.792l.017-.293.404-12.345.5-14.26.024-.393a1.473 1.473 0 00-.369-1.06 1.388 1.388 0 00-1-.468z" fill="#E7CC3F"/>
</svg>


